HIERARCHY
ROOT SpineBase
{
  OFFSET 0.000000 0.000000 0.000000
  CHANNELS 6 Xposition Yposition Zposition Zrotation Xrotation Yrotation
  JOINT SpineMid
  {
    OFFSET -0.000000 30.629541 0.000000
    CHANNELS 3 Zrotation Xrotation Yrotation
    JOINT SpineShoulder
    {
      OFFSET 0.088421 22.665969 -0.793960
      CHANNELS 3 Zrotation Xrotation Yrotation
      JOINT Neck
      {
        OFFSET 0.067718 7.480855 -0.588282
        CHANNELS 3 Zrotation Xrotation Yrotation
        JOINT Head
        {
          OFFSET 1.370198 14.400995 0.032987
          CHANNELS 3 Zrotation Xrotation Yrotation
          End Site
          {
            OFFSET 0 0 0
          }
        }
      }
      JOINT ShoulderLeft
      {
        OFFSET -17.081122 -2.938152 -4.151051
        CHANNELS 3 Zrotation Xrotation Yrotation
        JOINT ElbowLeft
        {
          OFFSET -7.436265 -28.216564 -1.753681
          CHANNELS 3 Zrotation Xrotation Yrotation
          JOINT WristLeft
          {
            OFFSET 0.498337 -22.496078 -4.832590
            CHANNELS 3 Zrotation Xrotation Yrotation
            JOINT HandLeft
            {
              OFFSET -0.813787 -3.491496 -0.423597
              CHANNELS 3 Zrotation Xrotation Yrotation
              JOINT HandTipLeft
              {
                OFFSET 0.968114 -6.346085 -0.907262
                CHANNELS 3 Zrotation Xrotation Yrotation
                End Site
                {
                  OFFSET 0 0 0
                }
              }
              JOINT ThumbLeft
              {
                OFFSET -2.237435 0.289270 -3.310229
                CHANNELS 3 Zrotation Xrotation Yrotation
                End Site
                {
                  OFFSET 0 0 0
                }
              }
            }
          }
        }
      }
      JOINT ShoulderRight
      {
        OFFSET 18.365604 -4.376195 -0.201578
        CHANNELS 3 Zrotation Xrotation Yrotation
        JOINT ElbowRight
        {
          OFFSET 5.382208 -27.248078 -1.289216
          CHANNELS 3 Zrotation Xrotation Yrotation
          JOINT WristRight
          {
            OFFSET -0.057054 -22.094466 -6.614342
            CHANNELS 3 Zrotation Xrotation Yrotation
            JOINT HandRight
            {
              OFFSET -2.304235 -5.128595 -0.363974
              CHANNELS 3 Zrotation Xrotation Yrotation
              JOINT HandTipRight
              {
                OFFSET -0.883415 -4.933133 -0.629416
                CHANNELS 3 Zrotation Xrotation Yrotation
                End Site
                {
                  OFFSET 0 0 0
                }
              }
              JOINT ThumbRight
              {
                OFFSET 2.796130 -0.377624 -2.432048
                CHANNELS 3 Zrotation Xrotation Yrotation
                End Site
                {
                  OFFSET 0 0 0
                }
              }
            }
          }
        }
      }
    }
  }
  JOINT HipLeft
  {
    OFFSET -7.480305 0.470227 -4.533516
    CHANNELS 3 Zrotation Xrotation Yrotation
    JOINT KneeLeft
    {
      OFFSET -3.066635 -31.559763 7.890945
      CHANNELS 3 Zrotation Xrotation Yrotation
      JOINT AnkleLeft
      {
        OFFSET -2.650337 -30.640766 9.165998
        CHANNELS 3 Zrotation Xrotation Yrotation
        JOINT FootLeft
        {
          OFFSET 1.526562 -4.715311 -13.728318
          CHANNELS 3 Zrotation Xrotation Yrotation
          End Site
          {
            OFFSET 0 0 0
          }
        }
      }
    }
  }
  JOINT HipRight
  {
    OFFSET 8.426597 0.389629 -2.765201
    CHANNELS 3 Zrotation Xrotation Yrotation
    JOINT KneeRight
    {
      OFFSET 1.465450 -31.220650 4.978457
      CHANNELS 3 Zrotation Xrotation Yrotation
      JOINT AnkleRight
      {
        OFFSET -0.430258 -31.126030 5.955214
        CHANNELS 3 Zrotation Xrotation Yrotation
        JOINT FootRight
        {
          OFFSET 1.338533 -4.697784 -13.748303
          CHANNELS 3 Zrotation Xrotation Yrotation
          End Site
          {
            OFFSET 0 0 0
          }
        }
      }
    }
  }
}
MOTION
Frames: 8
Frame Time: 0.033333
-48.840420 71.996667 377.621975 -6.814420 -8.115706 -2.280904 0.114471 0.228298 1.599327 0.090783 0.044407 -0.244685 2.835476 -6.755833 1.434879 0.000000 0.000000 0.000000 -0.043163 -2.690831 3.467670 8.943745 7.592358 -4.532080 47.015248 8.484249 -13.403661 -41.228525 -15.612631 3.404710 0.000000 0.000000 0.000000 0.000000 0.000000 0.000000 -0.742085 -2.339002 -1.358835 2.352355 13.288701 3.375468 -25.290718 14.179426 -3.313243 22.379279 -9.648334 7.207806 0.000000 0.000000 0.000000 0.000000 0.000000 0.000000 4.620130 2.782116 1.524280 1.212655 -2.096899 0.304587 -1.004636 1.689800 3.862989 0.000000 0.000000 0.000000 12.088048 30.660332 1.426335 1.700132 -17.684066 0.930802 -9.317650 -8.789112 1.616154 0.000000 0.000000 0.000000
-47.683976 71.722972 376.237149 -8.285482 -10.045446 -0.724506 0.150401 -0.008076 -0.261607 0.152085 0.060068 -0.294917 3.377347 -8.201513 1.665708 0.000000 0.000000 0.000000 0.335979 -3.477289 4.286495 9.879768 8.909821 -5.655969 48.383104 4.112114 -10.850683 -46.321220 -7.889452 4.170025 0.000000 0.000000 0.000000 0.000000 0.000000 0.000000 -1.112595 -1.535847 -1.397800 3.246197 14.114943 3.807231 -31.945330 4.908623 -0.939763 26.331955 -3.772616 2.278433 0.000000 0.000000 0.000000 0.000000 0.000000 0.000000 5.424981 4.446008 -0.520935 1.179779 -2.718238 0.288576 -0.655805 1.432189 5.185410 0.000000 0.000000 0.000000 14.103865 31.311223 -0.980365 1.921447 -16.437178 0.869784 -9.122793 -7.394937 2.960186 0.000000 0.000000 0.000000
-46.590883 71.524860 375.024607 -9.488059 -11.980894 0.460400 0.167737 -0.256349 -1.770865 0.209064 0.069769 -0.335451 3.748357 -9.081972 1.835030 0.000000 0.000000 0.000000 1.020869 -4.031863 4.979627 9.429417 9.777312 -6.301112 51.100580 -4.413799 -5.371701 -51.752661 0.239845 6.408416 0.000000 0.000000 0.000000 0.000000 0.000000 0.000000 -1.289302 -0.770984 -1.477834 4.728931 14.996059 3.746440 -35.127156 -1.159463 0.237981 23.787416 -2.039442 -0.501476 0.000000 0.000000 0.000000 0.000000 0.000000 0.000000 6.107858 6.062289 -2.183324 1.141909 -2.977740 0.245383 -0.961330 -3.716000 7.927545 0.000000 0.000000 0.000000 15.466342 31.671489 -2.941864 2.214960 -15.436947 0.851830 -8.747741 -5.029633 4.182145 0.000000 0.000000 0.000000
-45.712496 71.422817 374.186968 -10.161069 -13.647134 1.106166 0.139481 -0.527574 -2.678251 0.238121 0.047869 -0.358733 2.158763 -10.104319 2.054249 0.000000 0.000000 0.000000 1.625738 -4.214597 5.487777 8.359039 9.809339 -6.573382 54.651675 -12.344296 -0.128294 -56.312004 7.887460 9.594104 0.000000 0.000000 0.000000 0.000000 0.000000 0.000000 -1.436186 -0.728383 -1.774013 7.299129 17.377148 2.932686 -42.621850 -7.129512 0.825592 27.204563 0.411111 -3.165232 0.000000 0.000000 0.000000 0.000000 0.000000 0.000000 6.420341 7.546789 -3.190878 1.125335 -3.008776 0.205340 -1.032658 -7.217365 10.094920 0.000000 0.000000 0.000000 16.049796 32.133584 -4.159939 1.915525 -15.816490 0.651798 -8.156832 -6.667344 5.151215 0.000000 0.000000 0.000000
-44.963361 71.345412 373.524434 -10.807429 -15.430750 1.399475 0.218600 -0.516775 -3.246406 0.313638 0.097524 -0.375105 0.527106 -10.570388 2.268242 0.000000 0.000000 0.000000 1.909489 -4.384818 5.950167 7.243698 9.139602 -6.718798 58.005910 -15.959615 1.513231 -56.999664 5.132589 10.021096 0.000000 0.000000 0.000000 0.000000 0.000000 0.000000 -1.005376 -0.486585 -2.085928 7.670996 18.202963 2.893495 -40.947284 -11.887000 1.669878 23.274402 2.829423 -4.912896 0.000000 0.000000 0.000000 0.000000 0.000000 0.000000 6.634045 8.931359 -3.852970 1.400519 -2.466628 0.201040 -1.009641 -8.298010 11.254378 0.000000 0.000000 0.000000 16.740709 33.111646 -5.117284 1.761371 -16.017840 0.538362 -7.761452 -6.507585 5.956319 0.000000 0.000000 0.000000
-44.460375 71.350723 373.112185 -10.953992 -16.678777 1.360377 0.167021 -0.551950 -3.349370 0.292857 0.068552 -0.378952 -1.314075 -9.944133 2.493813 0.000000 0.000000 0.000000 2.266556 -4.021540 6.160128 6.441502 8.227214 -6.788192 51.447535 -12.592876 -1.219122 -49.736209 -3.298791 6.669970 0.000000 0.000000 0.000000 0.000000 0.000000 0.000000 -0.407870 -0.348137 -2.418216 8.204265 18.843443 2.529707 -39.955702 -15.303475 2.636367 23.493620 4.449138 -6.766330 0.000000 0.000000 0.000000 0.000000 0.000000 0.000000 6.529269 9.772820 -3.978329 1.543455 -1.674436 0.164877 -0.837123 -6.445844 11.300225 0.000000 0.000000 0.000000 16.886784 33.983455 -5.473455 1.542997 -16.046398 0.415801 -7.501420 -6.650884 6.503432 0.000000 0.000000 0.000000
-43.801776 71.206392 372.483223 -11.200538 -17.725829 1.389497 0.229307 -0.395188 -3.517833 0.275403 0.055820 -0.382356 -2.138007 -9.445832 2.653182 0.000000 0.000000 0.000000 2.234199 -3.880756 6.375481 6.449112 7.474473 -7.061265 46.590122 -11.727707 -1.367363 -43.327789 -9.314021 3.989944 0.000000 0.000000 0.000000 0.000000 0.000000 0.000000 -0.105339 -0.221727 -2.618649 9.699671 18.865847 1.644545 -44.917896 -21.415105 3.530407 34.233309 15.988984 -12.950192 0.000000 0.000000 0.000000 0.000000 0.000000 0.000000 6.440949 10.136360 -4.159434 1.492175 -0.893322 0.073315 -0.796303 -10.859934 13.033539 0.000000 0.000000 0.000000 16.905986 34.411971 -5.801116 1.432516 -15.963564 0.318910 -7.171074 -6.544501 7.173767 0.000000 0.000000 0.000000
-43.269787 71.033513 371.963613 -11.140342 -18.195991 1.221145 0.248129 -0.234016 -3.370080 0.226064 -0.022275 -0.379966 -3.247791 -9.589510 2.785359 0.000000 0.000000 0.000000 2.197693 -3.431427 6.381643 6.292374 6.460129 -7.057002 45.379137 -6.712821 -4.865621 -42.851584 -18.172127 2.616635 0.000000 0.000000 0.000000 0.000000 0.000000 0.000000 0.193722 0.158010 -2.656746 11.127507 18.550119 0.643818 -43.983038 -22.723267 4.569299 34.214656 21.414546 -14.312990 0.000000 0.000000 0.000000 0.000000 0.000000 0.000000 6.088878 10.102463 -3.989368 1.331899 -0.309786 -0.019205 -0.301072 -9.159333 12.719237 0.000000 0.000000 0.000000 16.537908 34.679493 -5.658398 1.224310 -16.250415 0.207618 -6.792770 -6.180899 7.485277 0.000000 0.000000 0.000000
